<?xml version="1.0" standalone="no"?>
<!DOCTYPE svg PUBLIC "-//W3C//DTD SVG 20010904//EN"
"http://www.w3.org/TR/2001/REC-SVG-20010904/DTD/svg10.dtd">
<svg
   style="fill:#000000;fill-opacity:0.5;stroke:none"
   width="595.275591"
   height="841.889764"
   id="svg32"
   xmlns="http://www.w3.org/2000/svg"
   xmlns:xlink="http://www.w3.org/1999/xlink">
  <defs
     id="defs34">
    <linearGradient
       id="linearGradient60">
      <stop
         style="stop-color:#ffffaf;stop-opacity:0.541176;"
         offset="0.000000"
         id="stop61" />
      <stop
         style="stop-color:#0000a2;stop-opacity:0.447059;"
         offset="1.000000"
         id="stop62" />
    </linearGradient>
    <linearGradient
       id="linearGradient57">
      <stop
         style="stop-color:#ffff9f;stop-opacity:0.960784;"
         offset="0.000000"
         id="stop58" />
      <stop
         style="stop-color:#000000;stop-opacity:0.458824;"
         offset="1.000000"
         id="stop59" />
    </linearGradient>
    <linearGradient
       id="linearGradient129">
      <stop
         style="stop-color:#ffffff;stop-opacity:1;"
         offset="0.000000"
         id="stop130" />
      <stop
         style="stop-color:#955d97;stop-opacity:1;"
         offset="1.000000"
         id="stop131" />
    </linearGradient>
    <linearGradient
       xlink:href="#linearGradient60"
       id="linearGradient132"
       x1="0"
       y1="0"
       x2="1"
       y2="1" />
    <linearGradient
       xlink:href="#linearGradient60"
       id="linearGradient142"
       x1="0"
       y1="0"
       x2="1"
       y2="1" />
    <linearGradient
       xlink:href="#linearGradient60"
       id="linearGradient48"
       x1="0"
       y1="0"
       x2="1"
       y2="1" />
    <linearGradient
       x1="0"
       y1="0"
       x2="1"
       y2="1"
       xlink:href="#linearGradient60"
       id="linearGradient49" />
    <linearGradient
       x1="0"
       y1="0"
       x2="1"
       y2="1"
       xlink:href="#linearGradient60"
       id="linearGradient50" />
    <linearGradient
       xlink:href="#linearGradient60"
       id="linearGradient53"
       x1="0"
       y1="0"
       x2="1"
       y2="1" />
    <linearGradient
       xlink:href="#linearGradient60"
       id="linearGradient54"
       x1="0"
       y1="0"
       x2="1"
       y2="1" />
    <linearGradient
       xlink:href="#linearGradient129"
       id="linearGradient158"
       x1="0.520974"
       y1="0.08"
       x2="0.572245"
       y2="1.16571" />
    <linearGradient
       xlink:href="#linearGradient129"
       id="linearGradient159"
       x1="0.520974"
       y1="0.08"
       x2="0.572245"
       y2="1.16571" />
    <linearGradient
       xlink:href="#linearGradient57"
       id="linearGradient161"
       x1="0"
       y1="0"
       x2="1"
       y2="1" />
    <linearGradient
       xlink:href="#linearGradient57"
       id="linearGradient163"
       x1="0"
       y1="0"
       x2="1"
       y2="1" />
    <linearGradient
       xlink:href="#linearGradient60"
       id="linearGradient165"
       x1="0"
       y1="0"
       x2="1"
       y2="1" />
    <linearGradient
       xlink:href="#linearGradient60"
       id="linearGradient168"
       x1="0"
       y1="0"
       x2="1"
       y2="1" />
  </defs>
  <path
     style="fill:#a2aac4; fill-opacity:1; fill-rule:evenodd; stroke:none; stroke-opacity:1; stroke-width:1px; stroke-linejoin:miter; stroke-linecap:butt; "
     id="path19"
     d="M 122.927 364.485 C 125.692 380.067 84.4659 397.304 82.3 403.801 C 97.6078 414.826 57.854 431.626 65.2632 436.565 C 70.5236 441.168 148.734 472.689 161.588 473.915 C 240.299 489.097 403.639 478.246 433.526 464.086 C 469.341 443.926 487.452 441.74 493.153 431.978 C 489.778 423.883 458.119 408.779 464.978 402.491 C 459.263 395.348 446.425 392.156 451.872 376.935 C 434.608 372.002 476.021 361.177 449.251 363.83 C 444.635 362.676 477.506 336.963 469.564 333.032 C 427.476 304.78 184.097 301.58 140.619 325.17 C 134.417 337.503 130.173 362.07 122.927 364.485 z "
     transform="matrix(1,0,0,0.36975,5.27831,294.886)" />
  <rect
     style="stroke:#8484ff; fill:none; fill-opacity:1; fill-rule:evenodd; stroke-opacity:1; stroke-width:1px; stroke-linejoin:miter; stroke-linecap:butt; "
     id="rect322"
     x="64.935965"
     y="48.972789"
     width="433.132119"
     height="433.133400"
     rx="0.000000"
     ry="0.000000" />
  <path
     style="fill:#000000; fill-opacity:0.226601; fill-rule:evenodd; stroke:none; stroke-opacity:1; stroke-width:1px; stroke-linejoin:miter; stroke-linecap:butt; "
     id="path20"
     d="M 226.236 394.638 C 229.198 407.383 198.721 434.193 204.279 439.751 C 304.51 461.227 283.619 473.75 359.89 472.315 C 363.922 466.267 379.209 438.559 380.071 415.221 C 355.893 404.476 277.238 386.667 226.236 394.638 z "
     transform="matrix(1.89147,0,0,0.345411,-281.368,294.249)" />
  <path
     style="fill:#7f7f7f; fill-opacity:1; fill-rule:evenodd; stroke:#000000; stroke-opacity:1; stroke-width:1px; stroke-linejoin:miter; stroke-linecap:butt; "
     id="path68"
     d="" />
  <path
     style="fill:#7f7f7f; fill-opacity:1; fill-rule:evenodd; stroke:#000000; stroke-opacity:1; stroke-width:1px; stroke-linejoin:miter; stroke-linecap:butt; "
     id="path47"
     d="" />
  <path
     style="fill:url(#linearGradient158);fill-opacity:1;fill-rule:evenodd;stroke:#000000;stroke-opacity:1;stroke-width:10pt;stroke-linejoin:miter;stroke-linecap:butt;"
     id="path132"
     d="M 222.054 154.143 C 215.501 159.385 226.72 408.388 227.951 428.701 C 243.127 428.701 369.49 428.878 387.182 431.979 C 416.841 347.04 417.926 172.83 406.184 150.212 C 394.724 147.338 235.815 147.566 222.054 154.143 z "
     transform="translate(49.1452,-0.65527)" />
  <path
     style="fill:#dd0000; fill-opacity:1; fill-rule:evenodd; stroke:#000000; stroke-opacity:1; stroke-width:10pt; stroke-linejoin:miter; stroke-linecap:butt; "
     id="path133"
     d="M 283.649 95.1693 C 284.742 95.1693 416.418 149.967 412.737 156.11 C 390.265 154.988 239.663 154.799 224.675 155.455 C 245.472 132.693 274.84 103.616 283.649 95.1693 z "
     transform="matrix(0.933798,0,0,1,68.6062,-9.1738)" />
  <path
     style="fill:#baffff; fill-opacity:1; fill-rule:evenodd; stroke:#000000; stroke-opacity:1; stroke-width:10pt; stroke-linejoin:miter; stroke-linecap:butt; "
     id="path134"
     d="M 351.143 127.278 C 354.369 112.862 354.379 74.856 353.109 63.7164 C 364.687 65.4662 364.248 63.8478 372.766 65.0269 C 370.413 73.2618 372.111 128.152 372.111 138.418 C 363.952 133.535 361.147 130.554 351.143 127.278 z "
     transform="matrix(1,0,0,0.675443,51.7663,33.1298)" />
  <path
     style="fill:url(#linearGradient159);fill-opacity:1;fill-rule:evenodd;stroke:#000000;stroke-opacity:1;stroke-width:10pt;stroke-linejoin:miter;stroke-linecap:butt;"
     id="path135"
     d="M 224.02 159.366 C 196.843 174.625 206.103 304.79 242.945 427.83 C 258.121 427.83 408.806 424.946 426.498 428.047 C 428.636 406.67 414.368 169.124 413.674 158.937 C 402.214 156.063 248.357 152.808 224.02 159.366 z "
     transform="matrix(0.69922,0,0,0.752688,-20.4254,106.023)" />
  <path
     style="fill:#dd0000; fill-opacity:1; fill-rule:evenodd; stroke:#000000; stroke-opacity:1; stroke-width:10pt; stroke-linejoin:miter; stroke-linecap:butt; "
     id="path136"
     d="M 283.649 95.1693 C 284.742 95.1693 406.594 149.967 412.737 156.11 C 390.265 154.988 235.662 156.54 220.674 157.196 C 223.597 142.269 274.84 103.616 283.649 95.1693 z "
     transform="matrix(-0.623245,-0,0,0.752688,403.279,100.611)" />
  <path
     style="fill:#e9f57f; fill-opacity:1; fill-rule:evenodd; stroke:#000000; stroke-opacity:1; stroke-width:10pt; stroke-linejoin:miter; stroke-linecap:butt; "
     id="path137"
     d="M 351.143 124.002 C 354.369 109.586 354.379 74.856 353.109 63.7164 C 364.687 65.4662 364.248 63.8478 372.766 65.0269 C 370.413 73.2618 371.456 122.91 371.456 133.176 C 363.297 128.293 361.147 127.278 351.143 124.002 z "
     transform="matrix(-0.69922,-0,0,0.450805,426.641,136.559)" />
  <path
     style="stroke:#000000; fill:#7f5400; fill-opacity:1; fill-rule:evenodd; stroke-opacity:1; stroke-width:5pt; stroke-linejoin:miter; stroke-linecap:butt; "
     d="M 224.02 364.485 L 224.02 426.081 L 256.783 426.081 L 256.783 364.485 L 224.02 364.485 z "
     id="path149" />
  <path
     style="stroke:#000000;fill:url(#linearGradient132);fill-opacity:1;fill-rule:evenodd;stroke-opacity:1;stroke-width:5pt;stroke-linejoin:miter;stroke-linecap:butt;"
     d="M 161.114 344.827 L 161.114 374.314 L 199.12 374.314 L 199.12 344.827 L 161.114 344.827 z "
     id="path150" />
  <path
     style="stroke:#000000;fill:url(#linearGradient142);fill-opacity:1;fill-rule:evenodd;stroke-opacity:1;stroke-width:5pt;stroke-linejoin:miter;stroke-linecap:butt;"
     d="M 218.778 288.474 L 218.778 324.514 L 258.094 324.514 L 258.094 288.474 L 218.778 288.474 z "
     id="path151" />
  <path
     style="stroke:#000000;fill:url(#linearGradient48);fill-opacity:1;fill-rule:evenodd;stroke-opacity:1;stroke-width:5pt;stroke-linejoin:miter;stroke-linecap:butt;"
     d="M 162.425 287.163 L 162.425 323.859 L 199.775 323.859 L 199.775 287.163 L 162.425 287.163 z "
     id="path152" />
  <path
     style="stroke:#000000; fill:url(#linearGradient54); fill-opacity:1; fill-rule:evenodd; stroke-opacity:1; stroke-width:5pt; stroke-linejoin:miter; stroke-linecap:butt; "
     d="M 309.86 201.978 L 309.86 258.332 L 353.763 258.332 L 353.763 201.978 L 309.86 201.978 z "
     id="path153"
     transform="translate(0,0)" />
  <path
     style="stroke:#000000;fill:url(#linearGradient53);fill-opacity:1;fill-rule:evenodd;stroke-opacity:1;stroke-width:5pt;stroke-linejoin:miter;stroke-linecap:butt;"
     d="M 312.481 287.163 L 312.481 325.169 L 355.074 325.169 L 355.074 287.163 L 312.481 287.163 z "
     id="path154" />
  <path
     style="stroke:#000000;fill:url(#linearGradient50);fill-opacity:1;fill-rule:evenodd;stroke-opacity:1;stroke-width:5pt;stroke-linejoin:miter;stroke-linecap:butt;"
     d="M 401.598 286.508 L 401.598 325.169 L 432.396 325.169 L 432.396 286.508 L 401.598 286.508 z "
     id="path155" />
  <path
     style="stroke:#000000; fill:#856100; fill-opacity:1; fill-rule:evenodd; stroke-opacity:1; stroke-width:5pt; stroke-linejoin:miter; stroke-linecap:butt; "
     d="M 360.971 349.414 L 360.971 428.046 L 397.666 428.046 L 397.666 349.414 L 360.971 349.414 z "
     id="path156"
     transform="translate(-2.62108,-1.96581)" />
  <path
     style="stroke:#000000;fill:url(#linearGradient49);fill-opacity:1;fill-rule:evenodd;stroke-opacity:1;stroke-width:5pt;stroke-linejoin:miter;stroke-linecap:butt;"
     d="M 394.39 207.876 L 394.39 261.608 L 434.362 261.608 L 434.362 207.876 L 394.39 207.876 z "
     id="path157"
     transform="translate(0,0)" />
  <path
     style="stroke:#000000;fill:url(#linearGradient161);fill-opacity:1;fill-rule:evenodd;stroke-opacity:1;stroke-width:5pt;stroke-linejoin:miter;stroke-linecap:butt;"
     d="M 224.02 364.485 L 224.02 426.081 L 256.783 426.081 L 256.783 364.485 L 224.02 364.485 z "
     id="path160" />
  <path
     style="stroke:#000000;fill:url(#linearGradient163);fill-opacity:1;fill-rule:evenodd;stroke-opacity:1;stroke-width:5pt;stroke-linejoin:miter;stroke-linecap:butt;"
     d="M 360.971 349.414 L 360.971 428.046 L 397.666 428.046 L 397.666 349.414 L 360.971 349.414 z "
     id="path162"
     transform="translate(-2.62108,-1.96581)" />
  <path
     style="fill:url(#linearGradient165);fill-opacity:1;fill-rule:evenodd;stroke:#000000;stroke-opacity:1;stroke-width:10pt;stroke-linejoin:miter;stroke-linecap:butt;"
     id="path164"
     d="M 283.649 95.1693 C 284.742 95.1693 412.933 149.326 412.033 156.11 C 389.561 154.988 240.368 151.592 225.38 152.248 C 246.177 129.486 274.84 103.616 283.649 95.1693 z "
     transform="matrix(0.930313,0,0,1.02151,69.3891,-11.2204)" />
  <path
     style="fill:url(#linearGradient168);fill-opacity:1;fill-rule:evenodd;stroke:#000000;stroke-opacity:1;stroke-width:10pt;stroke-linejoin:miter;stroke-linecap:butt;"
     id="path167"
     d="M 283.649 95.1693 C 284.742 95.1693 406.594 149.967 412.737 156.11 C 390.265 154.988 224.098 165.247 219.623 154.585 C 221.496 144.882 274.84 103.616 283.649 95.1693 z "
     transform="matrix(-0.623245,-0,0,0.752688,403.279,100.611)" />
</svg>
