<?xml version="1.0" encoding="iso-8859-1"?>
<svg width="300" height="200">
<rect style="fill:none;stroke:black" x="5" y="5" width="220" height="170" />

<clipPath id="corte">
 <path 
     d="M 16 9
           L 96 9 L 59 46 L 59 94 C 59 94 57 100 84 102 
           L 84 103 L 31 103 L 31 102 C 56 100 54 94 54 94 
           L 54 46 L 16 9 z "
/>
</clipPath>

<!--<clipPath id="corte">
 <circle cx="200" cy="100" r="50" />
</clipPath> -->

<g style="stroke:none;clip-path:url(#corte)">
 <rect style="fill:red" x="0" y="0" width="500" height="20" />
 <rect style="fill:green" x="0" y="20" width="500" height="20" />
 <rect style="fill:blue" x="0" y="40" width="500" height="20" />
 <rect style="fill:red" x="0" y="60" width="500" height="20" />
 <rect style="fill:green" x="0" y="80" width="500" height="20" />
 <rect style="fill:blue" x="0" y="100" width="500" height="20" />
 <rect style="fill:red" x="0" y="120" width="500" height="20" />
 <rect style="fill:green" x="0" y="140" width="500" height="20" />
 <rect style="fill:blue" x="0" y="160" width="500" height="20" />
 <rect style="fill:red" x="0" y="180" width="500" height="20" />
 <rect style="fill:green" x="0" y="200" width="500" height="20" />
 <rect style="fill:blue" x="0" y="240" width="500" height="20" />
</g>

<text x="30" y="130" font-size="18pt" font-family="fantasy">
 BAR 
 <tspan x="30" y="150" 
     style="fill:red;stroke:green;font-weight:bold;font-size:20pt">e-Baristo</tspan>
</text>

</svg>